HIERARCHY
ROOT Hips
{
	OFFSET 0.000000 0.000000 0.000000
	CHANNELS 6 Xposition Yposition Zposition Zrotation Yrotation Xrotation 
	JOINT LHipJoint
	{
		OFFSET 0.000000 0.000000 0.000000
		CHANNELS 3 Zrotation Yrotation Xrotation
		JOINT LeftUpLeg
		{
			OFFSET 1.363060 -1.794630 0.839290
			CHANNELS 3 Zrotation Yrotation Xrotation
			JOINT LeftLeg
			{
				OFFSET 2.448110 -6.726130 0.000000
				CHANNELS 3 Zrotation Yrotation Xrotation
				JOINT LeftFoot
				{
					OFFSET 2.562200 -7.039590 0.000000
					CHANNELS 3 Zrotation Yrotation Xrotation
					JOINT LeftToeBase
					{
						OFFSET 0.157640 -0.433110 2.322550
						CHANNELS 3 Zrotation Yrotation Xrotation
						End Site
						{
							OFFSET 0.000000 0.000000 0.000000
						}
					}
				}
			}
		}
	}
	JOINT RHipJoint
	{
		OFFSET 0.000000 0.000000 0.000000
		CHANNELS 3 Zrotation Yrotation Xrotation
		JOINT RightUpLeg
		{
			OFFSET -1.305520 -1.794630 0.839290
			CHANNELS 3 Zrotation Yrotation Xrotation
			JOINT RightLeg
			{
				OFFSET -2.542530 -6.985550 0.000000
				CHANNELS 3 Zrotation Yrotation Xrotation
				JOINT RightFoot
				{
					OFFSET -2.568260 -7.056230 0.000000
					CHANNELS 3 Zrotation Yrotation Xrotation
					JOINT RightToeBase
					{
						OFFSET -0.164730 -0.452590 2.363150
						CHANNELS 3 Zrotation Yrotation Xrotation
						End Site
						{
							OFFSET 0.000000 0.000000 0.000000
						}
					}
				}
			}
		}
	}
	JOINT LowerBack
	{
		OFFSET 0.000000 0.000000 0.000000
		CHANNELS 3 Zrotation Yrotation Xrotation
		JOINT Spine
		{
			OFFSET 0.028270 2.035590 -0.193380
			CHANNELS 3 Zrotation Yrotation Xrotation
			JOINT Spine1
			{
				OFFSET 0.056720 2.048850 -0.042750
				CHANNELS 3 Zrotation Yrotation Xrotation
				JOINT Neck
				{
					OFFSET 0.000000 0.000000 0.000000
					CHANNELS 3 Zrotation Yrotation Xrotation
					JOINT Neck1
					{
						OFFSET -0.054170 1.746240 0.172020
						CHANNELS 3 Zrotation Yrotation Xrotation
						JOINT Head
						{
							OFFSET 0.104070 1.761360 -0.123970
							CHANNELS 3 Zrotation Yrotation Xrotation
							End Site
							{
								OFFSET 0.000000 0.000000 0.000000
							}
						}
					}
				}
				JOINT LeftShoulder
				{
					OFFSET 0.000000 0.000000 0.000000
					CHANNELS 3 Zrotation Yrotation Xrotation
					JOINT LeftArm
					{
						OFFSET 3.362410 1.200890 -0.311210
						CHANNELS 3 Zrotation Yrotation Xrotation
						JOINT LeftForeArm
						{
							OFFSET 4.983000 -0.000000 -0.000000
							CHANNELS 3 Zrotation Yrotation Xrotation
							JOINT LeftHand
							{
								OFFSET 3.483560 -0.000000 -0.000000
								CHANNELS 3 Zrotation Yrotation Xrotation
								JOINT LeftFingerBase
								{
									OFFSET 0.000000 0.000000 0.000000
									CHANNELS 3 Zrotation Yrotation Xrotation
									JOINT LeftHandIndex1
									{
										OFFSET 0.715260 -0.000000 -0.000000
										CHANNELS 3 Zrotation Yrotation Xrotation
										End Site
										{
											OFFSET 0.000000 0.000000 0.000000
										}
									}
								}
								JOINT LThumb
								{
									OFFSET 0.000000 0.000000 0.000000
									CHANNELS 3 Zrotation Yrotation Xrotation
									End Site
									{
										OFFSET 0.000000 0.000000 0.000000
									}
								}
							}
						}
					}
				}
				JOINT RightShoulder
				{
					OFFSET 0.000000 0.000000 0.000000
					CHANNELS 3 Zrotation Yrotation Xrotation
					JOINT RightArm
					{
						OFFSET -3.136600 1.374050 -0.404650
						CHANNELS 3 Zrotation Yrotation Xrotation
						JOINT RightForeArm
						{
							OFFSET -5.241900 -0.000000 -0.000000
							CHANNELS 3 Zrotation Yrotation Xrotation
							JOINT RightHand
							{
								OFFSET -3.444170 -0.000000 -0.000000
								CHANNELS 3 Zrotation Yrotation Xrotation
								JOINT RightFingerBase
								{
									OFFSET 0.000000 0.000000 0.000000
									CHANNELS 3 Zrotation Yrotation Xrotation
									JOINT RightHandIndex1
									{
										OFFSET -0.622530 -0.000000 -0.000000
										CHANNELS 3 Zrotation Yrotation Xrotation
										End Site
										{
											OFFSET 0.000000 0.000000 0.000000
										}
									}
								}
								JOINT RThumb
								{
									OFFSET 0.000000 0.000000 0.000000
									CHANNELS 3 Zrotation Yrotation Xrotation
									End Site
									{
										OFFSET 0.000000 0.000000 0.000000
									}
								}
							}
						}
					}
				}
			}
		}
	}
}
MOTION
Frames: 10
Frame Time: 0.033333
-0.570311 15.780230 0.513813 3.512821 9.426909 29.940157 -9.463810 3.857384 -6.471978 -15.194486 -1.812570 -37.760915 -16.135624 -7.766902 21.492209 8.231284 -3.403373 -26.241090 -4.145327 0.056273 -33.994229 8.664159 -0.482311 5.723497 12.905102 -10.490137 -65.069461 1.132016 -8.868178 79.875228 -5.799590 -65.086176 73.293188 1.475930 0.024413 -40.361762 0.161442 -18.622650 5.951304 -4.212854 5.437119 -0.374798 -6.870576 6.609882 0.822982 9.959215 -5.326221 -7.872668 -1.463284 -0.119776 -0.383838 -0.030194 0.083222 0.040191 4.423806 9.655493 16.300522 -51.560055 -38.219744 -15.814939 -13.288841 -57.203147 8.739946 3.232674 3.098032 0.142441 0.026076 0.212364 -0.046291 0.022038 -0.039141 0.059916 -0.043997 -0.044928 -0.094526 12.350719 -22.622481 22.320517 64.933671 14.765849 9.314846 -6.893093 53.023486 -2.927956 -10.068597 7.996424 -0.862411 -0.010861 -0.429787 0.020964 0.116708 -0.038349 -0.057381 0.046083 -0.073070 0.028566 
-0.562106 15.902371 1.226758 3.475928 12.058417 28.222870 -8.920436 4.929898 -4.733596 -13.732292 -1.737096 -32.174522 -19.297817 -13.351179 11.892649 11.192160 -6.257183 -13.530330 -3.851255 -0.036708 -36.932297 9.783640 -1.345481 5.731249 12.704459 -10.648107 -73.116332 -28.755853 -16.190573 76.758399 176.730526 -63.803268 -135.604261 1.673826 0.044108 -40.327991 2.898401 -22.392006 6.919094 -4.831900 5.391510 -0.327269 -6.435016 6.995979 0.580093 10.227475 -7.323804 -8.486155 -1.319497 -0.094469 -0.596029 -0.022647 0.091612 0.040481 7.696276 9.615122 17.118253 -48.217493 -44.896941 -21.746353 -21.294356 -66.808430 16.055373 3.136838 2.321196 0.076694 0.031804 0.345167 -0.048674 0.017829 -0.044780 0.061869 -0.054732 -0.058231 -0.093695 11.306082 -24.940689 25.888467 65.202858 10.684370 9.330081 -6.711917 52.430046 -2.593295 -9.811961 7.363848 -0.808685 0.020491 -0.373172 0.029637 0.110982 -0.042231 -0.058413 0.053176 -0.074077 0.006757 
-0.521015 16.031949 1.861498 3.418103 12.450932 27.809614 -9.359064 6.026227 -4.695009 -12.443751 -0.481776 -28.488874 -20.231764 -13.799142 9.738171 12.260565 -8.201642 -12.831414 -3.464265 -0.067659 -39.664070 9.972017 -2.505415 6.714254 13.452255 -4.047239 -87.240862 -61.026088 -24.276540 69.771765 174.811211 -69.475003 -163.090410 1.590852 0.065298 -41.083312 3.898127 -23.841704 6.817548 -5.177695 5.608593 -0.299854 -5.965903 6.446910 0.449318 10.679835 -9.409551 -9.140228 -1.192012 -0.072842 -0.682597 -0.021432 0.089658 0.037755 11.227369 9.492796 16.784093 -46.499936 -48.381098 -25.729575 -33.730534 -74.432231 27.954920 2.763488 2.046925 0.042178 0.005031 0.443088 -0.044393 0.013082 -0.048940 0.064447 -0.062529 -0.064336 -0.091660 10.301094 -26.866520 27.981672 66.192901 7.742541 11.134735 -7.509439 53.430393 -3.392366 -9.219191 6.608361 -0.724976 -0.019026 -0.348329 0.034694 0.096501 -0.040271 -0.053225 0.062358 -0.071274 -0.015816 
-0.467022 16.134377 2.425504 2.705190 11.323588 27.200382 -9.681235 7.651348 -4.051488 -10.805338 0.291195 -26.777174 -21.182318 -12.498670 8.878959 13.445966 -10.058116 -12.892628 -3.317919 -0.105524 -42.054737 12.922479 -5.941480 6.957410 23.768309 5.516355 -98.823457 -72.163291 -34.015475 51.948041 3.677312 -86.997661 -17.893785 1.308582 0.122434 -41.375011 4.809954 -24.413042 6.810323 -5.145254 5.183986 -0.737062 -5.299327 7.390062 0.639055 10.877841 -11.320658 -10.587989 -1.144383 -0.057288 -1.053048 -0.019883 0.094375 0.041111 14.341594 9.380031 16.307165 -46.889719 -49.234704 -27.260931 -61.682723 -80.032486 55.438053 2.617924 1.688654 -0.015780 0.001548 0.627584 -0.041478 0.008811 -0.051076 0.070689 -0.065811 -0.066187 -0.094735 9.086759 -27.081584 28.666625 67.141327 4.246181 12.731128 -8.820002 55.122025 -4.640650 -8.562944 6.101346 -0.655760 0.000154 -0.358000 0.043624 0.084643 -0.040740 -0.051547 0.076009 -0.062553 -0.041189 
-0.412951 16.209956 2.945387 4.649175 9.169133 27.544349 -12.052073 8.150005 -3.450930 -10.554057 1.279643 -26.634384 -21.243288 -10.713853 10.061420 14.026328 -11.625129 -14.199498 -2.913009 -0.113414 -44.143165 17.686046 -6.579008 6.476823 36.235646 11.657626 -105.194838 -47.415208 -39.732810 27.305455 2.923924 -56.372924 -48.493283 0.895701 0.153368 -42.584846 2.870913 -22.648427 6.310845 -5.432762 5.075423 0.035447 -4.246838 5.972264 0.811602 10.988507 -12.708395 -11.087152 -1.074165 -0.047203 -1.137515 -0.023940 0.088996 0.039435 16.335554 9.549390 15.177951 -49.219574 -48.722905 -26.425138 -105.487486 -81.782644 99.280291 2.416419 1.711122 -0.042813 -0.015326 0.664161 -0.031233 0.008857 -0.055092 0.068878 -0.066833 -0.057157 -0.090057 7.409943 -27.385293 28.379239 68.731098 1.847288 15.205933 -9.701528 57.065301 -5.469646 -7.850316 5.583979 -0.584208 -0.006904 -0.336316 0.041558 0.074886 -0.038587 -0.046932 0.083456 -0.056335 -0.055995 
-0.358173 16.267813 3.446297 2.602743 13.162528 29.748985 -9.976169 7.260553 -5.173681 -8.750482 1.111151 -26.461905 -22.723920 -9.855641 11.704455 14.452002 -13.560866 -14.254745 -2.731636 -0.149610 -46.141024 9.637520 -3.247052 12.012520 13.823652 7.953793 -100.648144 1.329548 -6.096546 32.093757 -6.276715 -8.901207 -26.340845 0.405482 0.182185 -42.784471 7.710638 -20.732149 3.956429 -3.935689 2.838510 -0.839069 -4.246320 4.082790 1.306732 10.794968 -14.115530 -12.266106 -1.260351 -0.049937 -1.499968 -0.025012 0.084649 0.042032 17.795635 8.881178 13.711756 -52.950699 -46.710983 -22.973094 -140.772516 -79.021382 134.962097 2.539615 1.616317 -0.077229 -0.058585 0.785864 -0.030265 0.009826 -0.060008 0.071495 -0.061439 -0.047504 -0.095170 6.348388 -27.260739 26.326749 70.503715 -0.955275 17.045623 -10.189486 58.780226 -5.953140 -7.347883 5.175439 -0.528959 0.055251 -0.344103 0.043219 0.066702 -0.036250 -0.051574 0.092064 -0.048395 -0.077679 
-0.309378 16.308421 3.944122 3.383972 13.085931 31.081381 -10.348342 6.538517 -4.418594 -8.597960 0.485760 -26.358468 -21.656786 -8.987377 11.078703 13.426332 -14.195742 -15.060296 -2.390805 -0.130245 -47.175459 7.925824 -1.739922 11.184160 10.243898 7.712457 -99.278758 5.383465 -0.348261 25.511407 -2.503815 -6.757336 -8.644984 0.046133 0.183573 -43.612726 8.195045 -18.810099 3.030011 -3.375458 2.066713 -0.855475 -4.002755 2.293071 1.463272 10.646914 -14.278944 -12.048482 -1.432195 -0.077940 -1.409316 -0.027554 0.081152 0.041421 17.530770 9.192972 12.370166 -56.163797 -44.197082 -18.711237 -155.329675 -75.625323 150.043446 2.059678 1.681500 -0.096629 -0.078867 0.748191 -0.025511 0.012135 -0.061842 0.066579 -0.055845 -0.029449 -0.089504 6.418688 -25.896905 23.862837 71.247507 -2.720085 19.400009 -9.565310 59.936187 -5.331390 -6.463413 4.859436 -0.449906 0.083228 -0.281887 0.036383 0.060346 -0.038958 -0.054885 0.092258 -0.036158 -0.087493 
-0.277244 16.332776 4.446603 3.072697 12.808923 32.691763 -10.194473 6.262686 -3.996798 -7.759794 0.790577 -26.445644 -22.155734 -10.148012 10.615772 11.615590 -13.252024 -15.034296 -2.125351 -0.123421 -47.936430 8.087097 -0.952477 10.194748 10.580119 8.853894 -98.456167 5.610662 -0.900063 25.260939 -2.211170 -5.536671 -9.040783 -0.228823 0.148369 -43.678999 9.151546 -16.275705 2.075902 -3.033731 1.274820 -1.030243 -4.027309 0.795808 0.912430 10.390745 -14.524910 -11.830050 -1.544675 -0.087372 -1.499781 -0.026221 0.078547 0.042438 17.009241 8.715041 10.631089 -59.919052 -39.948438 -13.553602 -164.963103 -72.315829 160.594314 1.753522 1.654860 -0.112387 -0.105598 0.769586 -0.030145 0.012130 -0.066685 0.065721 -0.047099 -0.014162 -0.090977 7.464751 -23.632059 20.733721 72.092302 -4.578587 20.661942 -9.280200 59.997078 -5.336121 -5.827345 4.366775 -0.375759 0.108816 -0.310566 0.034350 0.050741 -0.041070 -0.065256 0.089612 -0.028500 -0.101983 
-0.257153 16.344958 4.954867 2.868189 11.422073 34.300723 -10.082672 5.230726 -2.695557 -7.288646 0.906628 -27.264421 -21.459258 -10.583282 9.708368 9.466447 -11.700371 -15.938855 -1.802181 -0.060460 -47.262290 7.937207 -0.046302 8.568388 10.776336 10.034105 -97.525709 5.604407 -2.263054 29.112986 -1.930976 -3.703284 -9.672819 -0.340729 0.154800 -43.999774 10.128830 -13.061970 0.907328 -2.639697 0.598833 -0.438634 -3.860953 -0.625668 1.127267 10.355086 -13.982061 -11.366073 -1.725820 -0.119481 -1.351043 -0.028521 0.077920 0.043860 15.158685 8.991043 8.819817 -61.327719 -36.701815 -8.958517 -169.279678 -69.119967 165.570481 0.588442 1.726623 -0.130966 -0.162286 0.695303 -0.034673 0.011697 -0.067107 0.061575 -0.042216 0.005235 -0.082101 8.027356 -21.045619 17.334812 71.511812 -5.980136 22.156680 -7.250694 60.405342 -3.557954 -4.609500 4.016060 -0.271714 0.159238 -0.239880 0.024833 0.046919 -0.051000 -0.070659 0.084339 -0.016502 -0.106471 
-0.234526 16.343106 5.469945 1.594576 9.765329 36.031454 -9.823620 4.740135 -1.277105 -6.131793 0.350492 -29.533054 -20.584728 -9.547608 10.204384 7.288392 -10.461699 -17.848188 -1.376831 -0.015518 -46.344562 8.059750 1.108644 7.241090 11.010739 11.793063 -96.586297 5.834976 -4.324024 35.029016 -1.852846 -1.803997 -11.149056 -0.358564 0.128793 -44.148487 10.795669 -9.280836 0.989109 -2.118484 0.601500 -0.804191 -4.212631 -2.150810 0.868056 10.401733 -13.584567 -10.545484 -1.658018 -0.136822 -1.092407 -0.029676 0.078825 0.045120 14.267276 8.402158 7.195222 -63.371830 -31.877891 -3.316414 -173.806458 -66.162830 170.872075 -0.523216 1.709094 -0.129695 -0.178180 0.671282 -0.047123 0.009436 -0.071135 0.059629 -0.037423 0.019324 -0.072748 8.971220 -19.205512 13.087133 71.367037 -7.375727 22.571316 -6.897035 60.961576 -3.899348 -3.535046 3.549133 -0.182212 0.147131 -0.261636 0.020517 0.040684 -0.059080 -0.077051 0.076723 -0.013230 -0.111244 
